<?xml version="1.0" encoding="utf-8"?>
<!-- Generator: Adobe Illustrator 25.4.1, SVG Export Plug-In . SVG Version: 6.00 Build 0)  -->
<svg version="1.1" id="레이어_1" xmlns="http://www.w3.org/2000/svg" xmlns:xlink="http://www.w3.org/1999/xlink" x="0px"
	 y="0px" viewBox="0 0 1290 2138" style="enable-background:new 0 0 1290 2138;" xml:space="preserve">
<style type="text/css">
	.st0{fill:#3D9C46;}
	.st1{fill:#5DBA58;}
	.st2{fill:#43170C;}
	.st3{fill:#793116;}
	.st4{fill:#9B462B;}
	.st5{fill:#CBD9DE;}
	.st6{fill:#E5AA37;}
	.st7{fill:#F0C060;}
	.st8{fill:#F6CE6E;}
	.st9{fill:#95CCDB;}
	.st10{fill:#FFFFFF;}
	.st11{fill:#8A62A9;}
</style>
<path class="st0" d="M623,1082.77c78.43-99.85,135.09-148.19,167.47-166.82c32.39-18.63,60.34-8.28,60.34-8.28
	s-60.94,8.8-98.63,43.69c-37.69,34.89-107,131.41-107,131.41H623z"/>
<path class="st1" d="M658.67,648.43c21.36-87.19,12.2-147.55-55.6-194.94S483.91,329.61,422.34,343.28
	c36.57,24.22,77.57,145.54,94.84,204.99C534.44,607.73,632.93,643.6,658.67,648.43z"/>
<path class="st1" d="M623,593.28c39.31,52.54,70.05,104.14,62.57,167.23c-7.48,63.08-16.08,69.43-16.08,69.43h-8.07
	c0,0,31.56-55.6,7.39-133.8C645.13,619.55,623,593.28,623,593.28z"/>
<path class="st0" d="M585.05,1239.66c-26.75-53.14-76.98-130.16-139.96-182.35c-61.42-50.91-93.35-71.63-93.35-71.63l9.45-19.41
	c0,0,91.67,75.6,147.61,142.08c55.93,66.48,77.01,94.72,77.01,94.72L585.05,1239.66z"/>
<path class="st0" d="M407.38,1026.79c-57.38-28.35-147.18-71.3-173.05-135.76s-54.93-135.8-54.93-135.8
	c98.3,38.82,180.41,76.29,206.66,144.13S407.38,1026.79,407.38,1026.79z"/>
<path class="st1" d="M696.75,756.9c47.51-17.98,162.44,15.98,218.88-111.84c36.1-81.76,44.76-92.85,99.94-132.4
	C890.56,565.29,722.1,671.11,696.75,756.9z"/>
<path class="st0" d="M691.81,757.62c11.81-69.1,37.36-121.92,123.92-171.21s158.37-54.27,158.37-54.27S871.23,573.37,824.82,637.1
	C741.18,751.93,691.81,757.62,691.81,757.62z"/>
<path class="st0" d="M596.91,1418.4c40.58-92.17,177.97-152.53,177.97-152.53l52.2,14.18c0,0-36.49,0.69-83.19,18.91
	c-72.56,28.3-130.73,109.74-144.98,195.23C603.44,1474.04,596.91,1418.4,596.91,1418.4z"/>
<path class="st1" d="M760.91,1274.88c6.32-40.52,95.51-178.04,163.14-169.37c45.03,5.77,39.84,102.51,45.7,148.67
	C895.72,1256.43,760.91,1274.88,760.91,1274.88z"/>
<path class="st0" d="M752.18,1277.06c53.76-17.75,231.36-141.99,309.61-100.44c50.15,26.64,125.23,157.93,105.81,241.78
	c-63.16-98.97-204.47-126.24-261.25-132.79C855.56,1279.75,855.1,1282.96,752.18,1277.06z"/>
<path class="st1" d="M790.47,915.95c40.57-73.35,32.07-170.89,128.07-177.4c0,0,130.78,11.53,185.06-6.74
	c8.72,67.02-53.97,131.98-93.95,150.93C969.66,901.69,790.47,915.95,790.47,915.95z"/>
<path class="st0" d="M790.47,915.95c29.25-32.5,69.94-55.13,129.4-48.52c59.45,6.61,92.97,19.32,100.64,9.36
	C967.38,927.94,925.12,916.96,790.47,915.95z"/>
<path class="st0" d="M685.74,966.34c-22.72,16.3-95.48,51.3-96.65,96.1c-1.17,44.8,2.52,55.91,2.52,55.91
	c62.34,9.78,141.03-29.65,179.89-75.36c38.86-45.71,63.64-75.78,63.64-75.78C780.31,1004.05,732.36,993.72,685.74,966.34z"/>
<path class="st1" d="M685.78,966.28c22.89,14.94,139.84,17.37,149.36,0.93c-1.54,54.52-30.85,147.72-92.41,200.47
	C760.1,1089.95,719.76,992.95,685.78,966.28z"/>
<path class="st0" d="M483.01,1082.77c-29.26-86.25-45.44-121.68,22.33-166.35c67.77-44.67,94.72-54.68,102.43-80.86
	C642.43,934.91,483.01,1082.77,483.01,1082.77z"/>
<path class="st0" d="M668.8,696.13c-29,24-49.81,28.92-71.88,15.47c-25.05-15.26-37.21-38.45-93.43-24.59
	C588.86,644.88,668.8,696.13,668.8,696.13z"/>
<ellipse transform="matrix(0.9938 -0.1109 0.1109 0.9938 -188.5194 61.7108)" class="st2" cx="460.5" cy="1725.59" rx="98.31" ry="49.57"/>
<ellipse transform="matrix(0.9938 -0.1109 0.1109 0.9938 -176.2364 82.4351)" class="st3" cx="652.95" cy="1625.53" rx="104.05" ry="58.41"/>
<ellipse transform="matrix(0.9938 -0.1109 0.1109 0.9938 -185.7609 75.5888)" class="st3" cx="586.64" cy="1707.73" rx="84.11" ry="52.32"/>
<ellipse transform="matrix(0.9938 -0.1109 0.1109 0.9938 -183.0085 112.1499)" class="st3" cx="916.69" cy="1701.27" rx="66.86" ry="52.32"/>
<ellipse transform="matrix(0.9938 -0.1109 0.1109 0.9938 -170.4915 112.1308)" class="st3" cx="923.01" cy="1589.09" rx="25.93" ry="25.9"/>
<ellipse transform="matrix(0.9938 -0.1109 0.1109 0.9938 -187.8901 51.9983)" class="st3" cx="373.61" cy="1715.47" rx="25.93" ry="25.9"/>
<ellipse transform="matrix(0.9938 -0.1109 0.1109 0.9938 -169.9882 116.9549)" class="st3" cx="966.64" cy="1586.98" rx="8.58" ry="8.57"/>
<ellipse transform="matrix(0.9938 -0.1109 0.1109 0.9938 -163.0603 111.8472)" class="st3" cx="924.18" cy="1522.13" rx="8.58" ry="8.57"/>
<ellipse transform="matrix(0.9938 -0.1109 0.1109 0.9938 -181.0013 57.2296)" class="st3" cx="424.1" cy="1656.15" rx="8.58" ry="8.57"/>
<ellipse transform="matrix(0.9938 -0.1109 0.1109 0.9938 -184.3426 95.0248)" class="st3" cx="762.08" cy="1704.7" rx="134.03" ry="84.69"/>
<ellipse transform="matrix(0.9938 -0.1109 0.1109 0.9938 -198.3472 85.8991)" class="st3" cx="673.03" cy="1826.04" rx="179.32" ry="110.71"/>
<ellipse transform="matrix(0.9938 -0.1109 0.1109 0.9938 -198.697 62.1492)" class="st3" cx="459.35" cy="1817.3" rx="179.32" ry="110.71"/>
<ellipse transform="matrix(0.9938 -0.1109 0.1109 0.9938 -204.2299 74.9505)" class="st2" cx="571.67" cy="1873.44" rx="179.32" ry="110.71"/>
<ellipse transform="matrix(0.9938 -0.1109 0.1109 0.9938 -200.9256 94.5904)" class="st2" cx="749.88" cy="1853.56" rx="133.25" ry="78.81"/>
<ellipse transform="matrix(0.9938 -0.1109 0.1109 0.9938 -189.6968 100.8791)" class="st2" cx="812.03" cy="1755.76" rx="90.04" ry="68.97"/>
<ellipse transform="matrix(0.9938 -0.1109 0.1109 0.9938 -183.423 61.6153)" class="st3" cx="462.32" cy="1680.11" rx="25.93" ry="25.9"/>
<ellipse transform="matrix(0.9938 -0.1109 0.1109 0.9938 -176.2697 91.7757)" class="st4" cx="736.9" cy="1630.5" rx="64.01" ry="23.93"/>
<path class="st0" d="M629.19,1683.33c0,0-66.35-191.76-52.14-489.8c8.54-178.96,111.71-438.3,111.71-438.3l38.37-31.56
	c0,0-118.49,206.48-127.97,452.53c-9.48,246.05,64.77,526.76,64.77,526.76L629.19,1683.33z"/>
<ellipse transform="matrix(0.9938 -0.1109 0.1109 0.9938 -182.3379 81.8934)" class="st4" cx="645.03" cy="1680.11" rx="82.5" ry="39.51"/>
</svg>
