<?xml version="1.0" encoding="utf-8"?>
<!-- Generator: Adobe Illustrator 25.4.1, SVG Export Plug-In . SVG Version: 6.00 Build 0)  -->
<svg version="1.1" id="레이어_1" xmlns="http://www.w3.org/2000/svg" xmlns:xlink="http://www.w3.org/1999/xlink" x="0px"
	 y="0px" viewBox="0 0 1437 2763" style="enable-background:new 0 0 1437 2763;" xml:space="preserve">
<style type="text/css">
	.st0{fill:#3D9C46;}
	.st1{fill:#5DBA58;}
	.st2{fill:#43170C;}
	.st3{fill:#793116;}
	.st4{fill:#9B462B;}
	.st5{fill:#CBD9DE;}
	.st6{fill:#E5AA37;}
	.st7{fill:#F0C060;}
	.st8{fill:#F6CE6E;}
	.st9{fill:#95CCDB;}
	.st10{fill:#FFFFFF;}
	.st11{fill:#8A62A9;}
</style>
<path class="st1" d="M488.27,1160.71c96.89,96.15,175.86,192.96,179.67,325.04s-11.95,147.77-11.95,147.77l-16.61,2.46
	c0,0,48-124.01-25.55-277.57C541.81,1208.03,488.27,1160.71,488.27,1160.71z"/>
<path class="st0" d="M647.83,1448.44c-4.62,48.73-50.44,192.58,28.67,226.39c79.12,33.82,89.46,32.57,89.46,32.57
	c111.06-94.91,173.01-248.47,148.72-344.53c-24.29-96.07-41.44-157.98-41.44-157.98C857.6,1320.74,767.12,1391.74,647.83,1448.44z"
	/>
<path class="st1" d="M550.7,1235.44c24.8-169.48,8.36-276.75-89.61-335.45c-97.96-58.7-174.59-177.9-260.17-126.84
	c52.76,29.2,117.51,235.27,145.27,337.45C373.96,1212.79,514.3,1237.38,550.7,1235.44z"/>
<path class="st0" d="M661.46,1277.84c68.95-135.71,124.29-205.76,158.03-235.22c33.74-29.46,69.02-23.81,69.02-23.81
	s-69.61,24.56-105.79,74.37c-36.18,49.81-95.18,179.48-95.18,179.48L661.46,1277.84z"/>
<path class="st1" d="M819.5,1042.61c0-75.39,15.83-191.34,130.69-180.64c63.62,5.93,162.78,78.49,249.11-57.24
	c-25.85,138.9-91.88,131.34-134.47,162.95C1022.22,999.29,819.5,1042.61,819.5,1042.61z"/>
<path class="st0" d="M819.5,1042.61c26.82-45.04,90.92-57.76,162.37-63.85s117.85-19.81,124.55-33.31
	C1024.82,986.91,978.07,1012.41,819.5,1042.61z"/>
<path class="st1" d="M688.07,778.6c-47.99,14.41-76.21,7.05-96.7-27.64c-23.26-39.36-26.57-81.19-103.09-100.27
	C615.13,649.32,688.07,778.6,688.07,778.6z"/>
<ellipse transform="matrix(0.994 -0.1096 0.1096 0.994 -239.783 56.5519)" class="st2" cx="394.52" cy="2209.39" rx="209.14" ry="61.66"/>
<ellipse transform="matrix(0.994 -0.1095 0.1095 0.994 -220.1838 87.1073)" class="st3" cx="683.33" cy="2049.1" rx="134.51" ry="66.82"/>
<ellipse transform="matrix(0.994 -0.1093 0.1093 0.994 -230.7086 78.0039)" class="st3" cx="596.46" cy="2144.29" rx="108.74" ry="59.85"/>
<ellipse transform="matrix(0.9941 -0.1083 0.1083 0.9941 -224.9554 123.3591)" class="st3" cx="1022.73" cy="2131.82" rx="86.43" ry="59.85"/>
<ellipse transform="matrix(0.9941 -0.1083 0.1083 0.9941 -239.9977 139.8574)" class="st3" cx="1167.03" cy="2278.5" rx="90.06" ry="82.94"/>
<ellipse transform="matrix(0.9866 -0.1632 0.1632 0.9866 -321.2139 203.3658)" class="st3" cx="1077.04" cy="2056.54" rx="29.63" ry="33.53"/>
<ellipse transform="matrix(0.9946 -0.1034 0.1034 0.9946 -221.2421 44.7753)" class="st3" cx="321.27" cy="2156.43" rx="33.53" ry="29.63"/>
<ellipse transform="matrix(0.9946 -0.1034 0.1034 0.9946 -202.1237 116.5066)" class="st3" cx="1022.73" cy="2007.88" rx="11.1" ry="9.81"/>
<ellipse transform="matrix(0.9946 -0.1034 0.1034 0.9946 -200.4817 96.4847)" class="st3" cx="830.42" cy="1982.04" rx="11.1" ry="9.81"/>
<ellipse transform="matrix(0.9946 -0.1034 0.1034 0.9946 -212.4738 49.8436)" class="st3" cx="374.54" cy="2074.39" rx="11.1" ry="9.81"/>
<ellipse transform="matrix(0.994 -0.1092 0.1092 0.994 -228.6008 102.6816)" class="st3" cx="823.03" cy="2138.13" rx="173.27" ry="96.89"/>
<ellipse transform="matrix(0.994 -0.1093 0.1093 0.994 -244.7519 90.815)" class="st3" cx="706.21" cy="2278.5" rx="231.82" ry="126.66"/>
<ellipse transform="matrix(0.994 -0.1093 0.1093 0.994 -251.9987 65.9097)" class="st3" cx="475.35" cy="2332.16" rx="231.82" ry="126.66"/>
<ellipse transform="matrix(0.994 -0.1091 0.1091 0.994 -255.4461 94.6362)" class="st2" cx="737.44" cy="2382.62" rx="266.86" ry="155.52"/>
<ellipse transform="matrix(0.994 -0.1092 0.1092 0.994 -255.4151 128.195)" class="st2" cx="1043.02" cy="2396.65" rx="288.44" ry="110.71"/>
<ellipse transform="matrix(0.9941 -0.1085 0.1085 0.9941 -237.3629 124.1876)" class="st2" cx="1022.73" cy="2243.7" rx="157.36" ry="78.9"/>
<ellipse transform="matrix(0.9941 -0.1085 0.1085 0.9941 -258.2442 43.4057)" class="st2" cx="269.82" cy="2395.23" rx="77.51" ry="64.44"/>
<ellipse transform="matrix(0.9941 -0.1085 0.1085 0.9941 -250.274 63.7812)" class="st2" cx="461.08" cy="2332.16" rx="78.92" ry="41.71"/>
<ellipse transform="matrix(0.9946 -0.1034 0.1034 0.9946 -212.3233 55.8275)" class="st3" cx="432.34" cy="2075.93" rx="33.53" ry="29.63"/>
<ellipse transform="matrix(0.9939 -0.1098 0.1098 0.9939 -224.0724 102.2787)" class="st4" cx="816.31" cy="2084.95" rx="72.12" ry="39.18"/>
<path class="st0" d="M763.13,2110.84c0,0-159.06-238.6-128.86-611.06c47.91-590.91,131.51-909.81,131.51-909.81l9.05,64.54
	c0,0-107.01,525.17-103.17,858.81c6.11,531.45,164.8,565.34,164.8,565.34L763.13,2110.84z"/>
<ellipse transform="matrix(0.994 -0.1097 0.1097 0.994 -229.0302 91.0018)" class="st4" cx="712.83" cy="2127.74" rx="112.16" ry="55.73"/>
<path class="st0" d="M820.67,1487.98c-63.67,212.31-85.03,374.24-75.03,485.82c6.55,73.08-32.8,6.84-32.8,6.84
	S726.8,1682.5,820.67,1487.98z"/>
<path class="st1" d="M488.27,1501.93c-70.95-80.65-96.11-191.41-204.76-193.37c0,0-140.77,20.41-207.36,2.8
	c14.11,76.27,106.58,146.18,157.58,165.36S488.27,1501.93,488.27,1501.93z"/>
<path class="st0" d="M488.27,1501.93c-43.92-35.1-97.02-58.39-160.52-47.57c-63.51,10.82-204.88-61.06-216.91-71.9
	C219.75,1512.69,339.5,1510.66,488.27,1501.93z"/>
<path class="st1" d="M647.78,1448.33c61.26-26.77,240.88-216.17,225.45-243.43c96.12,41.34,220.45,155.62,223.44,293.81
	C982.4,1414.94,746.85,1411.8,647.78,1448.33z"/>
<path class="st0" d="M361.47,1274.15c33.69-30.02,58.41-36.83,85.44-21.68c30.67,17.19,46.26,44.44,113,25.37
	C459.48,1332.05,361.47,1274.15,361.47,1274.15z"/>
<path class="st0" d="M488.27,1501.93c247.93,229.31,187.38,357.57,187.38,357.57l6.52,53.11c0,0-20.41-171.03-83.01-265.89
	c-39.7-60.15-145.85-158.74-145.85-158.74L488.27,1501.93z"/>
<path class="st1" d="M449.03,1300.18c35.93,2.53,75.96-1.27,85.87-6.02c13.41-6.42,25.01-16.32,25.01-16.32L449.03,1300.18z"/>
<path class="st1" d="M666.39,747.54c64.12,76.12,41.27,139.82,41.27,139.82l-10.17,61.18c0,0,6.42-88.32-0.22-120.73
	C688.07,782.8,666.39,747.54,666.39,747.54z"/>
<ellipse transform="matrix(0.9387 -0.3448 0.3448 0.9387 -149.5659 267.8941)" class="st9" cx="678.33" cy="554.41" rx="97.8" ry="142.43"/>
<ellipse transform="matrix(0.9037 -0.4282 0.4282 0.9037 -173.2069 429.3812)" class="st9" cx="867.83" cy="599.7" rx="90.81" ry="124.64"/>
<ellipse transform="matrix(0.9387 -0.3448 0.3448 0.9387 -134.4284 307.8292)" class="st9" cx="798.16" cy="531.82" rx="97.8" ry="142.43"/>
<ellipse transform="matrix(0.9387 -0.3448 0.3448 0.9387 -73.4841 269.2445)" class="st9" cx="720.17" cy="341.2" rx="97.8" ry="142.43"/>
<ellipse transform="matrix(0.9387 -0.3448 0.3448 0.9387 -134.6103 361.1176)" class="st9" cx="947.88" cy="558.98" rx="97.8" ry="142.43"/>
<ellipse transform="matrix(0.9387 -0.3448 0.3448 0.9387 -64.1047 324.264)" class="st9" cx="879.53" cy="342.34" rx="97.8" ry="142.43"/>
<ellipse transform="matrix(0.887 -0.4617 0.4617 0.887 -144.1314 437.001)" class="st10" cx="821" cy="513.05" rx="50.1" ry="71.59"/>
</svg>
