<?xml version="1.0" encoding="utf-8"?>
<!-- Generator: Adobe Illustrator 25.4.1, SVG Export Plug-In . SVG Version: 6.00 Build 0)  -->
<svg version="1.1" id="레이어_1" xmlns="http://www.w3.org/2000/svg" xmlns:xlink="http://www.w3.org/1999/xlink" x="0px"
	 y="0px" viewBox="0 0 1437 2763" style="enable-background:new 0 0 1437 2763;" xml:space="preserve">
<style type="text/css">
	.st0{fill:#3D9C46;}
	.st1{fill:#5DBA58;}
	.st2{fill:#43170C;}
	.st3{fill:#793116;}
	.st4{fill:#9B462B;}
	.st5{fill:#CBD9DE;}
	.st6{fill:#E5AA37;}
	.st7{fill:#F0C060;}
	.st8{fill:#F6CE6E;}
	.st9{fill:#95CCDB;}
	.st10{fill:#FFFFFF;}
	.st11{fill:#8A62A9;}
</style>
<path class="st11" d="M824.01,539.96c0,0,100.81-135.5,144.38-202.03s106.24-72.07,114.1-57.18s-23.53,68.44-89.79,121.11
	S824.01,539.96,824.01,539.96z"/>
<path class="st11" d="M841.71,550.55c0,0,153.76-115.26,209.2-148.36c49.35-29.46,106.92-29.75,112.91-4.18
	c5.99,25.58,13.11,43.16-96.67,71.58S876.44,528.89,841.71,550.55z"/>
<path class="st11" d="M852.91,564.96c133.35-45.78,209.63-83.16,273.03-77.7s58.84,48.11,56.34,61s-55.51-13.16-117.93-10
	C1001.93,541.42,852.91,564.96,852.91,564.96z"/>
<path class="st11" d="M813.14,525.97c0,0,77.39-142.03,99.94-197.6c20.07-49.46,10.51-103.62-15.27-106.58
	c-25.78-2.96-44.01-7.83-52.74,98.35C836.34,426.3,828.16,491.06,813.14,525.97z"/>
<path class="st11" d="M789.41,531.47c22.49-144.55,47.59-228.39,28.57-294.31s-64.63-56.76-78.18-52.81
	c-13.56,3.95,25.79,56.86,35.21,122.64C784.42,372.77,789.41,531.47,789.41,531.47z"/>
<ellipse transform="matrix(0.4507 -0.8927 0.8927 0.4507 -55.2683 1022.4371)" class="st11" cx="803.2" cy="556.13" rx="13.99" ry="39.43"/>
<path class="st11" d="M772.43,523.02c-7.24-41.55-7.79-100.64-34.98-179.09c-27.19-78.45-54.01-135.84-90.47-116.4
	s-19.53,35.45,10.62,86.14S714.72,400.72,772.43,523.02z"/>
<path class="st11" d="M761.71,521.57c-36.74-46.13-112.85-193.25-180.33-189.7c-67.48,3.55-68.35,53.52-59.68,57.05
	c27.76,11.32,62.68-5.15,99.56,7.98C658.12,410.03,761.71,521.57,761.71,521.57z"/>
<path class="st11" d="M757.02,534.99c-44.32-37.57-103.53-84.02-129.64-75.29c-26.11,8.73-57.04,63.89-38.82,86.18
	c18.22,22.3,43.36-26.58,63.92-39.01C673.06,494.44,726.18,513.61,757.02,534.99z"/>
<path class="st11" d="M851.09,574.8c48.32-4.56,91.3-14.5,135.42,5.19c32.82,14.65,55.56,32.94,40.54,56.71
	c-6.48,10.25-4.28-0.26-24.92-17.93c-14.24-12.18-34.75-22.47-86.92-29.98C863.04,581.28,851.09,574.8,851.09,574.8z"/>
<path class="st1" d="M499.11,1153.59c97.83,97.08,177.57,194.83,181.41,328.19c3.85,133.36-12.07,149.2-12.07,149.2l-16.77,2.48
	c0,0,48.47-125.21-25.8-280.26C553.17,1201.37,499.11,1153.59,499.11,1153.59z"/>
<path class="st0" d="M660.22,1444.11c-4.66,49.21-50.93,194.44,28.95,228.59c79.88,34.15,90.32,32.89,90.32,32.89
	c112.13-95.83,174.69-250.88,150.16-347.88S887.8,1198.2,887.8,1198.2C872.02,1315.17,780.67,1386.86,660.22,1444.11z"/>
<path class="st1" d="M562.14,1229.05c25.04-171.12,8.44-279.43-90.48-338.7c-98.91-59.27-176.28-179.63-262.69-128.07
	c53.27,29.48,118.65,237.55,146.68,340.72C383.69,1206.17,525.39,1231,562.14,1229.05z"/>
<path class="st0" d="M673.98,1271.85c69.62-137.02,125.5-207.76,159.57-237.5c34.07-29.75,69.69-24.04,69.69-24.04
	s-70.28,24.8-106.81,75.1c-36.53,50.29-96.1,181.22-96.1,181.22L673.98,1271.85z"/>
<path class="st1" d="M833.55,1034.35c0-76.13,15.98-193.2,131.95-182.39c64.24,5.98,164.36,79.25,251.52-57.8
	c-26.1,140.25-92.77,132.61-135.78,164.53C1038.24,990.6,833.55,1034.35,833.55,1034.35z"/>
<path class="st0" d="M833.55,1034.35c27.08-45.48,91.8-58.32,163.95-64.47c72.15-6.15,118.99-20,125.76-33.64
	C1040.86,978.11,993.66,1003.85,833.55,1034.35z"/>
<path class="st1" d="M700.85,767.78c-48.46,14.55-76.95,7.12-97.64-27.91c-23.48-39.74-26.83-81.98-104.09-101.25
	C627.2,637.24,700.85,767.78,700.85,767.78z"/>
<ellipse transform="matrix(0.994 -0.1096 0.1096 0.994 -240.057 57.6587)" class="st2" cx="404.45" cy="2212.43" rx="211.17" ry="62.26"/>
<ellipse transform="matrix(0.994 -0.1095 0.1095 0.994 -220.2706 88.5097)" class="st3" cx="696.06" cy="2050.6" rx="135.82" ry="67.47"/>
<ellipse transform="matrix(0.994 -0.1093 0.1093 0.994 -230.9012 79.3172)" class="st3" cx="608.34" cy="2146.71" rx="109.79" ry="60.43"/>
<ellipse transform="matrix(0.9941 -0.1083 0.1083 0.9941 -225.1097 125.1085)" class="st3" cx="1038.75" cy="2134.12" rx="87.27" ry="60.43"/>
<ellipse transform="matrix(0.9941 -0.1083 0.1083 0.9941 -240.2977 141.7667)" class="st3" cx="1184.45" cy="2282.21" rx="90.94" ry="83.74"/>
<ellipse transform="matrix(0.9866 -0.1632 0.1632 0.9866 -321.2473 206.0875)" class="st3" cx="1093.59" cy="2058.1" rx="29.92" ry="33.85"/>
<ellipse transform="matrix(0.9946 -0.1034 0.1034 0.9946 -221.4545 45.7421)" class="st3" cx="330.49" cy="2158.96" rx="33.85" ry="29.92"/>
<ellipse transform="matrix(0.9946 -0.1034 0.1034 0.9946 -202.1508 118.169)" class="st3" cx="1038.75" cy="2008.98" rx="11.21" ry="9.9"/>
<ellipse transform="matrix(0.9946 -0.1034 0.1034 0.9946 -200.4929 97.9529)" class="st3" cx="844.58" cy="1982.88" rx="11.21" ry="9.9"/>
<ellipse transform="matrix(0.9946 -0.1034 0.1034 0.9946 -212.6013 50.8596)" class="st3" cx="384.28" cy="2076.12" rx="11.21" ry="9.9"/>
<ellipse transform="matrix(0.994 -0.1092 0.1092 0.994 -228.7738 104.234)" class="st3" cx="837.11" cy="2140.48" rx="174.95" ry="97.83"/>
<ellipse transform="matrix(0.994 -0.1093 0.1093 0.994 -245.0804 92.2526)" class="st3" cx="719.16" cy="2282.21" rx="234.07" ry="127.89"/>
<ellipse transform="matrix(0.994 -0.1093 0.1093 0.994 -252.3975 67.1058)" class="st3" cx="486.07" cy="2336.4" rx="234.07" ry="127.89"/>
<ellipse transform="matrix(0.994 -0.1091 0.1091 0.994 -255.8824 96.1099)" class="st2" cx="750.7" cy="2387.34" rx="269.45" ry="157.02"/>
<ellipse transform="matrix(0.994 -0.1092 0.1092 0.994 -255.8489 129.9946)" class="st2" cx="1059.24" cy="2401.51" rx="291.24" ry="111.78"/>
<ellipse transform="matrix(0.9941 -0.1085 0.1085 0.9941 -237.6349 125.9455)" class="st2" cx="1038.75" cy="2247.08" rx="158.89" ry="79.67"/>
<ellipse transform="matrix(0.9941 -0.1085 0.1085 0.9941 -258.7187 44.3803)" class="st2" cx="278.54" cy="2400.08" rx="78.26" ry="65.06"/>
<ellipse transform="matrix(0.9941 -0.1085 0.1085 0.9941 -250.6711 64.9535)" class="st2" cx="471.65" cy="2336.4" rx="79.69" ry="42.11"/>
<ellipse transform="matrix(0.9946 -0.1034 0.1034 0.9946 -212.4493 56.9015)" class="st3" cx="442.63" cy="2077.68" rx="33.85" ry="29.92"/>
<ellipse transform="matrix(0.9939 -0.1098 0.1098 0.9939 -224.1896 103.8297)" class="st4" cx="830.33" cy="2086.79" rx="72.82" ry="39.56"/>
<path class="st0" d="M776.63,2112.93c0,0-160.6-240.92-130.11-616.99c48.37-596.64,132.78-918.63,132.78-918.63l9.14,65.16
	c0,0-108.05,530.26-104.17,867.13c6.17,536.6,166.39,570.82,166.39,570.82L776.63,2112.93z"/>
<ellipse transform="matrix(0.994 -0.1097 0.1097 0.994 -229.1989 92.4427)" class="st4" cx="725.85" cy="2130" rx="113.24" ry="56.27"/>
<path class="st0" d="M834.73,1484.03c-64.29,214.37-85.86,377.87-75.76,490.53c6.61,73.79-33.12,6.91-33.12,6.91
	S739.95,1680.44,834.73,1484.03z"/>
<path class="st1" d="M499.11,1498.11c-71.64-81.43-97.05-193.27-206.74-195.24c0,0-142.13,20.6-209.37,2.83
	c14.24,77.01,107.61,147.6,159.11,166.96S499.11,1498.11,499.11,1498.11z"/>
<path class="st0" d="M499.11,1498.11c-44.35-35.44-97.96-58.96-162.08-48.03c-64.12,10.93-206.86-61.65-219.01-72.6
	C227.99,1508.98,348.89,1506.93,499.11,1498.11z"/>
<path class="st1" d="M660.17,1443.99c61.85-27.03,243.21-218.27,227.64-245.79c97.05,41.74,222.59,157.13,225.6,296.66
	C998.03,1410.29,760.2,1407.11,660.17,1443.99z"/>
<path class="st0" d="M371.08,1268.12c34.02-30.31,58.97-37.19,86.27-21.89c30.97,17.35,46.71,44.87,114.1,25.62
	C470.04,1326.59,371.08,1268.12,371.08,1268.12z"/>
<path class="st0" d="M499.11,1498.11c250.33,231.54,189.2,361.04,189.2,361.04l6.58,53.62c0,0-20.6-172.69-83.82-268.47
	c-40.08-60.73-147.26-160.27-147.26-160.27L499.11,1498.11z"/>
<path class="st1" d="M459.49,1294.41c36.27,2.55,76.7-1.29,86.7-6.08c13.54-6.48,25.25-16.48,25.25-16.48L459.49,1294.41z"/>
<path class="st1" d="M678.96,736.41c64.75,76.86,41.67,141.18,41.67,141.18l-10.27,61.77c0,0,6.48-89.17-0.22-121.9
	C700.85,772.02,678.96,736.41,678.96,736.41z"/>
<path class="st0" d="M767.89,564.96c17.6,12.35,34.86,28.54,56.82,23.67c-18.01,35.43-36.63,57.08-43.86,68.9
	c-8.42,0.66-11.85,1.76-13.27-13.08C763.33,600.18,764.9,581.31,767.89,564.96z"/>
</svg>
