<?xml version="1.0" encoding="utf-8"?>
<!-- Generator: Adobe Illustrator 25.4.1, SVG Export Plug-In . SVG Version: 6.00 Build 0)  -->
<svg version="1.1" id="레이어_1" xmlns="http://www.w3.org/2000/svg" xmlns:xlink="http://www.w3.org/1999/xlink" x="0px"
	 y="0px" viewBox="0 0 1437 2763" style="enable-background:new 0 0 1437 2763;" xml:space="preserve">
<style type="text/css">
	.st0{fill:#3D9C46;}
	.st1{fill:#5DBA58;}
	.st2{fill:#43170C;}
	.st3{fill:#793116;}
	.st4{fill:#9B462B;}
	.st5{fill:#CBD9DE;}
	.st6{fill:#E5AA37;}
	.st7{fill:#F0C060;}
	.st8{fill:#F6CE6E;}
	.st9{fill:#95CCDB;}
	.st10{fill:#FFFFFF;}
	.st11{fill:#8A62A9;}
</style>
<path class="st1" d="M505.2,1153.28c94.25,93.53,171.07,187.71,174.78,316.19c3.71,128.48-11.63,143.74-11.63,143.74l-16.15,2.39
	c0,0,46.7-120.63-24.85-270.01C557.28,1199.31,505.2,1153.28,505.2,1153.28z"/>
<path class="st0" d="M660.41,1433.17c-4.49,47.41-49.07,187.33,27.89,220.23c76.96,32.9,87.02,31.69,87.02,31.69
	c108.03-92.32,168.3-241.7,144.67-335.15c-23.63-93.45-40.31-153.68-40.31-153.68C864.46,1308.95,776.45,1378.02,660.41,1433.17z"/>
<path class="st1" d="M565.92,1225.97c24.12-164.86,8.13-269.21-87.17-326.31c-95.3-57.1-169.83-173.06-253.08-123.39
	c51.32,28.4,114.31,228.86,141.32,328.26C394,1203.93,530.51,1227.86,565.92,1225.97z"/>
<path class="st0" d="M673.67,1267.21c67.07-132.01,120.91-200.16,153.73-228.82c32.82-28.66,67.14-23.16,67.14-23.16
	s-67.71,23.89-102.91,72.35c-35.2,48.46-92.59,174.59-92.59,174.59L673.67,1267.21z"/>
<path class="st1" d="M827.4,1038.39c0-73.34,15.4-186.13,127.13-175.72c61.89,5.77,158.35,76.35,242.32-55.68
	c-25.15,135.12-89.38,127.76-130.81,158.51C1024.6,996.25,827.4,1038.39,827.4,1038.39z"/>
<path class="st0" d="M827.4,1038.39c26.09-43.82,88.44-56.19,157.95-62.12c69.51-5.93,114.64-19.27,121.16-32.41
	C1027.13,984.21,981.65,1009.01,827.4,1038.39z"/>
<path class="st1" d="M699.55,781.57c-46.68,14.02-74.13,6.86-94.07-26.89c-22.62-38.29-25.85-78.98-100.29-97.54
	C628.6,655.81,699.55,781.57,699.55,781.57z"/>
<ellipse transform="matrix(0.994 -0.1096 0.1096 0.994 -235.7203 58.47)" class="st2" cx="413.99" cy="2173.39" rx="203.44" ry="59.99"/>
<ellipse transform="matrix(0.994 -0.1095 0.1095 0.994 -216.6518 88.1883)" class="st3" cx="694.94" cy="2017.47" rx="130.85" ry="65"/>
<ellipse transform="matrix(0.994 -0.1093 0.1093 0.994 -226.8857 79.3262)" class="st3" cx="610.43" cy="2110.07" rx="105.78" ry="58.22"/>
<ellipse transform="matrix(0.9941 -0.1083 0.1083 0.9941 -221.2703 123.4163)" class="st3" cx="1025.1" cy="2097.94" rx="84.08" ry="58.22"/>
<ellipse transform="matrix(0.9941 -0.1083 0.1083 0.9941 -235.9028 139.4652)" class="st3" cx="1165.47" cy="2240.62" rx="87.61" ry="80.68"/>
<ellipse transform="matrix(0.9866 -0.1632 0.1632 0.9866 -316.0063 203.0841)" class="st3" cx="1077.93" cy="2024.7" rx="28.82" ry="32.61"/>
<ellipse transform="matrix(0.9946 -0.1034 0.1034 0.9946 -217.5543 46.8103)" class="st3" cx="342.74" cy="2121.88" rx="32.61" ry="28.82"/>
<ellipse transform="matrix(0.9946 -0.1034 0.1034 0.9946 -198.9566 116.588)" class="st3" cx="1025.1" cy="1977.38" rx="10.8" ry="9.54"/>
<ellipse transform="matrix(0.9946 -0.1034 0.1034 0.9946 -197.3593 97.1114)" class="st3" cx="838.03" cy="1952.23" rx="10.8" ry="9.54"/>
<ellipse transform="matrix(0.9946 -0.1034 0.1034 0.9946 -209.0249 51.7406)" class="st3" cx="394.56" cy="2042.07" rx="10.8" ry="9.54"/>
<ellipse transform="matrix(0.994 -0.1092 0.1092 0.994 -224.8346 103.3306)" class="st3" cx="830.84" cy="2104.07" rx="168.55" ry="94.25"/>
<ellipse transform="matrix(0.994 -0.1093 0.1093 0.994 -240.5469 91.789)" class="st3" cx="717.2" cy="2240.62" rx="225.51" ry="123.21"/>
<ellipse transform="matrix(0.994 -0.1093 0.1093 0.994 -247.5964 67.562)" class="st3" cx="492.63" cy="2292.82" rx="225.51" ry="123.21"/>
<ellipse transform="matrix(0.994 -0.1091 0.1091 0.994 -250.9454 95.499)" class="st2" cx="747.58" cy="2341.9" rx="259.6" ry="151.28"/>
<ellipse transform="matrix(0.994 -0.1092 0.1092 0.994 -250.9176 128.1476)" class="st2" cx="1044.84" cy="2355.55" rx="280.59" ry="107.69"/>
<ellipse transform="matrix(0.9941 -0.1085 0.1085 0.9941 -233.3427 124.2266)" class="st2" cx="1025.1" cy="2206.77" rx="153.08" ry="76.75"/>
<ellipse transform="matrix(0.9941 -0.1085 0.1085 0.9941 -253.6553 45.6448)" class="st2" cx="292.69" cy="2354.17" rx="75.39" ry="62.68"/>
<ellipse transform="matrix(0.9941 -0.1085 0.1085 0.9941 -245.9021 65.4654)" class="st2" cx="478.74" cy="2292.82" rx="76.77" ry="40.57"/>
<ellipse transform="matrix(0.9946 -0.1034 0.1034 0.9946 -208.8784 57.5615)" class="st3" cx="450.78" cy="2043.57" rx="32.61" ry="28.82"/>
<ellipse transform="matrix(0.9939 -0.1098 0.1098 0.9939 -220.4424 102.9591)" class="st4" cx="824.3" cy="2052.35" rx="70.16" ry="38.12"/>
<path class="st0" d="M772.57,2077.53c0,0-154.72-232.1-125.35-594.42c46.6-574.82,127.93-885.03,127.93-885.03l8.81,62.78
	c0,0-104.09,510.87-100.36,835.42c5.95,516.97,160.31,549.94,160.31,549.94L772.57,2077.53z"/>
<ellipse transform="matrix(0.994 -0.1097 0.1097 0.994 -225.2614 91.9834)" class="st4" cx="723.64" cy="2093.97" rx="109.1" ry="54.21"/>
<path class="st0" d="M828.54,1471.63c-61.94,206.53-82.72,364.05-72.99,472.59c6.37,71.09-31.91,6.66-31.91,6.66
	S737.23,1660.85,828.54,1471.63z"/>
<path class="st1" d="M505.2,1485.2c-69.02-78.45-93.5-186.2-199.18-188.1c0,0-136.93,19.85-201.71,2.72
	c13.72,74.19,103.67,142.2,153.29,160.86C307.21,1479.33,505.2,1485.2,505.2,1485.2z"/>
<path class="st0" d="M505.2,1485.2c-42.73-34.15-94.37-56.8-156.15-46.28s-199.3-59.4-211-69.94
	C243.99,1495.67,360.47,1493.69,505.2,1485.2z"/>
<path class="st1" d="M660.36,1433.06c59.59-26.04,234.32-210.28,219.31-236.8c93.5,40.22,214.45,151.38,217.35,285.81
	C985.86,1400.58,756.73,1397.53,660.36,1433.06z"/>
<path class="st0" d="M381.85,1263.62c32.78-29.2,56.82-35.83,83.11-21.09c29.84,16.72,45,43.23,109.93,24.68
	C477.19,1319.95,381.85,1263.62,381.85,1263.62z"/>
<path class="st0" d="M505.2,1485.2c241.18,223.07,182.28,347.83,182.28,347.83l6.34,51.66c0,0-19.85-166.37-80.75-258.65
	c-38.62-58.51-141.87-154.41-141.87-154.41L505.2,1485.2z"/>
<path class="st1" d="M467.03,1288.94c34.95,2.46,73.9-1.24,83.53-5.86c13.04-6.25,24.33-15.88,24.33-15.88L467.03,1288.94z"/>
<path class="st6" d="M777.53,353.84c-9.12-38.52,35.25-104.66,35.25-104.66s41.36,40.77,72.28,83.13
	c14.71,20.15-31.86,94.59-31.86,94.59S783.59,379.43,777.53,353.84z"/>
<path class="st6" d="M821.21,341.21c31.55-29.38,136.08-78.08,136.08-78.08s22.1,115.11,17.18,137.45
	c-4.91,22.33-47.99,70.43-47.99,70.43l-98.43-42.93L821.21,341.21z"/>
<path class="st7" d="M775.64,664.44c-31.13-13.6-125.72-43.38-109.09-162.58s34.91-180.79,57.43-238.03
	c58.89,74.62,159.66,119.45,150.8,225.42S775.64,664.44,775.64,664.44z"/>
<path class="st8" d="M772.86,663.16c-27.5-45.33-8.82-161.18,29.61-193.58s232.1-118.85,232.1-118.85s-6.7,183.42-84.6,272.61
	S772.86,663.16,772.86,663.16z"/>
<path class="st1" d="M678.47,751.35c62.38,74.05,40.15,136.01,40.15,136.01l-9.89,59.51c0,0,6.24-85.91-0.21-117.44
	C699.55,785.66,678.47,751.35,678.47,751.35z"/>
</svg>
