<svg width="24" height="24" viewBox="0 0 24 24" fill="none" xmlns="http://www.w3.org/2000/svg">
<path fill-rule="evenodd" clip-rule="evenodd" d="M6.55603 11.9999C6.55652 9.40275 8.39154 7.16759 10.9389 6.66135C13.4862 6.15512 16.0365 7.51879 17.03 9.91841C18.0235 12.318 17.1836 15.0853 15.0239 16.5279C12.8642 17.9705 9.98626 17.6866 8.15003 15.8499C7.12914 14.8288 6.55576 13.4439 6.55603 11.9999V11.9999Z" stroke="black" stroke-width="1.5" stroke-linecap="round" stroke-linejoin="round"/>
<path fill-rule="evenodd" clip-rule="evenodd" d="M9.66699 12.0001C9.6673 10.8871 10.4538 9.92928 11.5454 9.71242C12.6371 9.49557 13.7299 10.08 14.1556 11.1084C14.5813 12.1368 14.2213 13.3227 13.2957 13.9408C12.3702 14.559 11.1368 14.4372 10.35 13.6501C9.91251 13.2124 9.66682 12.6189 9.66699 12.0001V12.0001Z" stroke="black" stroke-width="1.5" stroke-linecap="round" stroke-linejoin="round"/>
<path d="M17.444 11.25C17.0298 11.25 16.694 11.5858 16.694 12C16.694 12.4142 17.0298 12.75 17.444 12.75V11.25ZM19 12.75C19.4142 12.75 19.75 12.4142 19.75 12C19.75 11.5858 19.4142 11.25 19 11.25V12.75ZM5 11.25C4.58579 11.25 4.25 11.5858 4.25 12C4.25 12.4142 4.58579 12.75 5 12.75V11.25ZM6.556 12.75C6.97021 12.75 7.306 12.4142 7.306 12C7.306 11.5858 6.97021 11.25 6.556 11.25V12.75ZM11.25 6.556C11.25 6.97021 11.5858 7.306 12 7.306C12.4142 7.306 12.75 6.97021 12.75 6.556H11.25ZM12.75 5C12.75 4.58579 12.4142 4.25 12 4.25C11.5858 4.25 11.25 4.58579 11.25 5H12.75ZM11.25 19C11.25 19.4142 11.5858 19.75 12 19.75C12.4142 19.75 12.75 19.4142 12.75 19H11.25ZM12.75 17.444C12.75 17.0298 12.4142 16.694 12 16.694C11.5858 16.694 11.25 17.0298 11.25 17.444H12.75ZM17.444 12.75H19V11.25H17.444V12.75ZM5 12.75H6.556V11.25H5V12.75ZM12.75 6.556V5H11.25V6.556H12.75ZM12.75 19V17.444H11.25V19H12.75Z" fill="black"/>
</svg>
