<svg width="300" height="74" viewBox="0 0 300 74" fill="none" xmlns="http://www.w3.org/2000/svg">
<line x1="30" y1="60" x2="267" y2="60" stroke="#0CC057" stroke-width="8"/>
<path d="M0.984 17.976H21.096V20.568H0.984V17.976ZM9.408 13.224H12.6V18.6H9.408V13.224ZM3.096 2.328H6.264V5.736H15.744V2.328H18.912V13.896H3.096V2.328ZM6.264 8.232V11.352H15.744V8.232H6.264ZM31.4621 11.592H34.6541V14.688H31.4621V11.592ZM23.0381 9.72H43.1261V12.216H23.0381V9.72ZM25.5101 1.56H40.5821V8.544H25.5101V1.56ZM37.4381 4.032H28.6541V6.096H37.4381V4.032ZM25.3421 13.608H40.7021V19.32H28.5101V21.288H25.3661V17.112H37.5581V15.984H25.3421V13.608ZM25.3661 20.592H41.2781V22.992H25.3661V20.592ZM47.4683 10.824H63.0923V13.368H47.4683V10.824ZM45.1403 18.024H65.2523V20.64H45.1403V18.024ZM53.5643 11.976H56.7563V18.864H53.5643V11.976ZM47.4683 2.424H62.9243V4.992H50.6603V11.928H47.4683V2.424ZM76.9676 4.608H79.5356V5.424C79.5356 9.192 77.5196 12.504 73.2716 13.656L71.8076 11.16C75.4076 10.2 76.9676 7.824 76.9676 5.424V4.608ZM77.5676 4.608H80.1596V5.424C80.1596 7.632 81.6956 9.888 85.2716 10.8L83.8556 13.248C79.5596 12.168 77.5676 9 77.5676 5.424V4.608ZM72.5996 3.048H84.5276V5.544H72.5996V3.048ZM76.9676 0.839999H80.1596V4.2H76.9676V0.839999ZM86.2796 0.912H89.4716V13.56H86.2796V0.912ZM88.5836 5.88H92.4236V8.496H88.5836V5.88ZM80.6156 15.576H83.3036V16.104C83.3036 19.56 80.4236 22.368 75.0716 23.064L73.9196 20.64C78.5516 20.088 80.6156 18.024 80.6156 16.104V15.576ZM81.3116 15.576H84.0236V16.104C84.0236 17.952 86.1356 20.088 90.6956 20.688L89.5676 23.112C84.1916 22.416 81.3116 19.464 81.3116 16.104V15.576ZM74.8556 14.52H89.7596V17.04H74.8556V14.52ZM96.1178 2.784H110.206V5.352H96.1178V2.784ZM94.0778 17.88H114.166V20.472H94.0778V17.88ZM101.182 10.248H104.374V19.152H101.182V10.248ZM109.054 2.784H112.246V4.92C112.246 7.704 112.246 10.824 111.358 15.576L108.166 15.216C109.054 10.8 109.054 7.584 109.054 4.92V2.784Z" fill="black"/>
<path d="M35.184 43.024H37.536V44.2C37.536 46.768 36.048 49.216 32.64 50.056L31.344 47.728C33.936 47.128 35.184 45.592 35.184 44.2V43.024ZM36.12 43.024H38.352V44.152C38.352 45.424 39.576 46.864 41.928 47.44L40.992 49.768C37.512 48.952 36.12 46.48 36.12 44.152V43.024ZM43.632 43.024H45.864V44.152C45.864 46.504 44.472 48.976 40.992 49.768L40.056 47.44C42.408 46.864 43.632 45.448 43.632 44.152V43.024ZM44.496 43.024H46.848V44.2C46.848 45.664 48.072 47.152 50.688 47.728L49.368 50.056C45.984 49.216 44.496 46.84 44.496 44.2V43.024ZM32.304 41.68H40.56V44.2H32.304V41.68ZM41.448 41.68H49.68V44.2H41.448V41.68ZM30.96 51.568H51.072V54.088H30.96V51.568ZM39.408 49.768H42.6V53.56H39.408V49.768ZM33.144 55.864H48.648V63.136H45.456V58.384H33.144V55.864ZM58.3901 44.416H60.9341V46.912C60.9341 52.048 58.8461 57.064 54.6701 58.96L52.8701 56.44C56.5901 54.784 58.3901 50.68 58.3901 46.912V44.416ZM59.1101 44.416H61.6301V46.912C61.6301 50.512 63.4061 54.352 67.1261 55.888L65.3981 58.408C61.1741 56.584 59.1101 51.856 59.1101 46.912V44.416ZM53.7581 43.048H66.2141V45.664H53.7581V43.048ZM68.2781 40.912H71.4941V63.136H68.2781V40.912ZM77.4683 50.824H93.0923V53.368H77.4683V50.824ZM75.1403 58.024H95.2523V60.64H75.1403V58.024ZM83.5643 51.976H86.7563V58.864H83.5643V51.976ZM77.4683 42.424H92.9243V44.992H80.6603V51.928H77.4683V42.424ZM106.968 44.608H109.536V45.424C109.536 49.192 107.52 52.504 103.272 53.656L101.808 51.16C105.408 50.2 106.968 47.824 106.968 45.424V44.608ZM107.568 44.608H110.16V45.424C110.16 47.632 111.696 49.888 115.272 50.8L113.856 53.248C109.56 52.168 107.568 49 107.568 45.424V44.608ZM102.6 43.048H114.528V45.544H102.6V43.048ZM106.968 40.84H110.16V44.2H106.968V40.84ZM116.28 40.912H119.472V53.56H116.28V40.912ZM118.584 45.88H122.424V48.496H118.584V45.88ZM110.616 55.576H113.304V56.104C113.304 59.56 110.424 62.368 105.072 63.064L103.92 60.64C108.552 60.088 110.616 58.024 110.616 56.104V55.576ZM111.312 55.576H114.024V56.104C114.024 57.952 116.136 60.088 120.696 60.688L119.568 63.112C114.192 62.416 111.312 59.464 111.312 56.104V55.576ZM104.856 54.52H119.76V57.04H104.856V54.52ZM126.118 42.784H140.206V45.352H126.118V42.784ZM124.078 57.88H144.166V60.472H124.078V57.88ZM131.182 50.248H134.374V59.152H131.182V50.248ZM139.054 42.784H142.246V44.92C142.246 47.704 142.246 50.824 141.358 55.576L138.166 55.216C139.054 50.8 139.054 47.584 139.054 44.92V42.784Z" fill="black"/>
<line x1="257.828" y1="32.1716" x2="296.828" y2="71.1716" stroke="#0CC057" stroke-width="8"/>
</svg>
