<svg width="40" height="39" viewBox="0 0 40 39" fill="none" xmlns="http://www.w3.org/2000/svg">
<path d="M10 19.5625C9.58579 19.5625 9.25 19.8983 9.25 20.3125C9.25 20.7267 9.58579 21.0625 10 21.0625V19.5625ZM30 21.0625C30.4142 21.0625 30.75 20.7267 30.75 20.3125C30.75 19.8983 30.4142 19.5625 30 19.5625V21.0625ZM10 26.0625C9.58579 26.0625 9.25 26.3983 9.25 26.8125C9.25 27.2267 9.58579 27.5625 10 27.5625V26.0625ZM30 27.5625C30.4142 27.5625 30.75 27.2267 30.75 26.8125C30.75 26.3983 30.4142 26.0625 30 26.0625V27.5625ZM10 13.0625C9.58579 13.0625 9.25 13.3983 9.25 13.8125C9.25 14.2267 9.58579 14.5625 10 14.5625V13.0625ZM30 14.5625C30.4142 14.5625 30.75 14.2267 30.75 13.8125C30.75 13.3983 30.4142 13.0625 30 13.0625V14.5625ZM10 21.0625H30V19.5625H10V21.0625ZM10 27.5625H30V26.0625H10V27.5625ZM10 14.5625H30V13.0625H10V14.5625Z" fill="black"/>
</svg>
