<?xml version="1.0" encoding="utf-8"?>
<!-- Generator: Adobe Illustrator 25.4.1, SVG Export Plug-In . SVG Version: 6.00 Build 0)  -->
<svg version="1.1" id="레이어_1" xmlns="http://www.w3.org/2000/svg" xmlns:xlink="http://www.w3.org/1999/xlink" x="0px"
	 y="0px" viewBox="0 0 758 768" style="enable-background:new 0 0 758 768;" xml:space="preserve">
<style type="text/css">
	.st0{fill:#3D9C46;}
	.st1{fill:#5DBA58;}
	.st2{fill:#43170C;}
	.st3{fill:#793116;}
	.st4{fill:#9B462B;}
	.st5{fill:#CBD9DE;}
	.st6{fill:#E5AA37;}
	.st7{fill:#F0C060;}
	.st8{fill:#F6CE6E;}
	.st9{fill:#95CCDB;}
	.st10{fill:#FFFFFF;}
	.st11{fill:#8A62A9;}
</style>
<path class="st0" d="M344.66,674.91c-6.98-95.44,73.33-200.6,73.33-200.6l27.5-17.49c0,0-14.93,15.07-41.9,51.5
	c-41.9,56.61-59.8,145.42-52.81,193.4C346.06,682.83,344.66,674.91,344.66,674.91z"/>
<path class="st1" d="M417.99,474.3c-8.29-37.13,7.86-120.93,68.09-136.65c40.11-10.46,81.41,9.35,101.92,47.16
	C526.02,412.15,417.99,474.3,417.99,474.3z"/>
<path class="st0" d="M416.22,476.68c39.57-33.75,128.34-112.69,208.65-103.67c51.47,5.78,103.45,29.68,115.23,108.68
	c-86.86-63.73-144.93-61.84-195.25-48.01C499.84,446.05,505.43,446.48,416.22,476.68z"/>
<path class="st1" d="M360.81,405.56c-1.96-100.13-29.15-162.6-115.84-194.25S80.96,111.9,18.5,144.29
	c46.38,15.63,125.37,134.69,161.03,193.85S331.67,407.73,360.81,405.56z"/>
<path class="st1" d="M299.12,307.98c56.96,63.93,103.82,130.73,109.11,235.42c5.3,104.69-3.22,119.24-3.22,119.24l-10.34-1.66
	c0,0,25.16-99.24-20-211.95C330.46,338.68,299.12,307.98,299.12,307.98z"/>
</svg>
