<svg width="110" height="100" viewBox="0 0 84 82" fill="none" xmlns="http://www.w3.org/2000/svg">
<path d="M21.484 39.8669H22.492V45.3989H21.484V39.8669ZM18.172 40.3949H19.264C19.264 43.1669 17.332 44.8829 14.14 45.6269L13.78 44.8109C16.636 44.1869 18.172 42.7829 18.172 40.8989V40.3949ZM14.32 40.3949H18.844V41.2109H14.32V40.3949ZM15.472 45.9269H22.492V48.5669H16.48V50.2109H15.496V47.8229H21.496V46.7189H15.472V45.9269ZM15.496 49.8149H22.852V50.6069H15.496V49.8149ZM24.6391 45.2069H34.4431V46.0229H24.6391V45.2069ZM29.0431 43.4669H30.0271V45.5429H29.0431V43.4669ZM25.8751 43.1549H33.3031V43.9709H25.8751V43.1549ZM25.8751 40.3589H33.2191V41.1629H26.8591V43.6349H25.8751V40.3589ZM29.5231 46.8029C31.8391 46.8029 33.2431 47.5109 33.2431 48.7469C33.2431 50.0069 31.8391 50.7029 29.5231 50.7029C27.2071 50.7029 25.8031 50.0069 25.8031 48.7469C25.8031 47.5109 27.2071 46.8029 29.5231 46.8029ZM29.5231 47.5709C27.8311 47.5709 26.8111 48.0029 26.8111 48.7469C26.8111 49.5029 27.8311 49.9229 29.5231 49.9229C31.2271 49.9229 32.2351 49.5029 32.2351 48.7469C32.2351 48.0029 31.2271 47.5709 29.5231 47.5709ZM20.788 62.7549C20.788 63.3469 20.664 63.8829 20.416 64.3629C20.176 64.8349 19.804 65.2109 19.3 65.4909C18.796 65.7629 18.16 65.8989 17.392 65.8989C16.304 65.8989 15.476 65.6109 14.908 65.0349C14.348 64.4509 14.068 63.6829 14.068 62.7309V57.2109H15.364V62.6709C15.364 63.3749 15.536 63.9069 15.88 64.2669C16.224 64.6189 16.748 64.7949 17.452 64.7949C17.932 64.7949 18.324 64.7069 18.628 64.5309C18.932 64.3549 19.152 64.1109 19.288 63.7989C19.432 63.4789 19.504 63.0989 19.504 62.6589V57.2109H20.788V62.7549ZM26.1314 59.1909C26.8834 59.1909 27.4594 59.3789 27.8594 59.7549C28.2594 60.1309 28.4594 60.7349 28.4594 61.5669V65.7789H27.1994V61.7469C27.1994 61.2429 27.0914 60.8669 26.8754 60.6189C26.6674 60.3629 26.3314 60.2349 25.8674 60.2349C25.2114 60.2349 24.7554 60.4309 24.4994 60.8229C24.2514 61.2149 24.1274 61.7789 24.1274 62.5149V65.7789H22.8554V59.3109H23.8634L24.0434 60.1749H24.1154C24.2594 59.9509 24.4354 59.7669 24.6434 59.6229C24.8514 59.4789 25.0834 59.3709 25.3394 59.2989C25.5954 59.2269 25.8594 59.1909 26.1314 59.1909ZM31.686 59.3109V65.7789H30.414V59.3109H31.686ZM31.062 56.8509C31.254 56.8509 31.422 56.9069 31.566 57.0189C31.71 57.1309 31.782 57.3189 31.782 57.5829C31.782 57.8389 31.71 58.0269 31.566 58.1469C31.422 58.2589 31.254 58.3149 31.062 58.3149C30.854 58.3149 30.678 58.2589 30.534 58.1469C30.398 58.0269 30.33 57.8389 30.33 57.5829C30.33 57.3189 30.398 57.1309 30.534 57.0189C30.678 56.9069 30.854 56.8509 31.062 56.8509ZM35.1355 65.7789L32.6875 59.3109H34.0315L35.3755 63.0909C35.4315 63.2509 35.4875 63.4309 35.5435 63.6309C35.6075 63.8309 35.6635 64.0229 35.7115 64.2069C35.7595 64.3909 35.7915 64.5509 35.8075 64.6869H35.8555C35.8795 64.5509 35.9155 64.3909 35.9635 64.2069C36.0195 64.0149 36.0795 63.8229 36.1435 63.6309C36.2075 63.4309 36.2635 63.2509 36.3115 63.0909L37.6555 59.3109H38.9995L36.5395 65.7789H35.1355Z" fill="#888888"/>
<g clip-path="url(#clip0_0_1)">
<path d="M65.9476 70.7863H66.7716L75.877 61.0363L75.0324 60.1319L65.9476 69.8819V70.7863ZM77.8752 60.3083L75.7122 58.0142L76.5774 57.0878C76.7546 56.8804 76.977 56.7789 77.2366 56.7789C77.4962 56.7789 77.7187 56.8804 77.8958 57.0878L78.7404 57.9701C78.9176 58.1598 79.0041 58.398 78.9959 58.676C78.9876 58.9539 78.897 59.1966 78.7198 59.4039L77.8752 60.3083ZM77.216 61.0142L67.1424 71.7789H65V69.4848L75.053 58.7201L77.216 61.0142ZM75.465 60.573L75.0324 60.1319L75.877 61.0363L75.465 60.573Z" fill="black"/>
</g>
<ellipse cx="39.589" cy="40.9421" rx="39.4936" ry="40.9421" fill="#D9D9D9"/>
<path opacity="0.8" fill-rule="evenodd" clip-rule="evenodd" d="M39.3171 81.8841C27.5303 81.8767 16.9514 76.5166 9.71967 68.0216C9.98389 67.3821 10.3094 66.7794 10.6956 66.2129C11.9051 64.4388 13.4794 63.0984 15.3992 62.1719C19.6804 60.2007 23.808 58.7223 27.7437 57.7367C31.6793 56.7511 35.6342 56.2583 39.589 56.2583C43.5439 56.2583 47.4987 56.7708 51.396 57.7761C55.2932 58.8012 59.4016 60.2599 63.6828 62.1719C65.6603 63.0984 67.2729 64.4388 68.4824 66.2129C68.7897 66.6637 69.0586 67.1374 69.2888 67.6343C62.051 76.3534 51.3307 81.8766 39.3658 81.8841H39.3171ZM29.2219 46.1065C31.9097 48.8662 35.3654 50.2461 39.589 50.2461C43.8126 50.2461 47.2683 48.8662 49.9561 46.1065C52.6438 43.3468 53.9877 39.7986 53.9877 35.4619C53.9877 31.1253 52.6438 27.5771 49.9561 24.8174C47.2683 22.0577 43.8126 20.6778 39.589 20.6778C35.3654 20.6778 31.9097 22.0577 29.2219 24.8174C26.5342 27.5771 25.1903 31.1253 25.1903 35.4619C25.1903 39.7986 26.5342 43.3468 29.2219 46.1065Z" fill="white"/>
<ellipse cx="70.3063" cy="62.8606" rx="13.5635" ry="14.0609" fill="#36A400"/>
<path d="M72.0573 61.88H75.8373V64.02H72.0573V67.78H69.9173V64.02H66.1373V61.88H69.9173V58.08H72.0573V61.88Z" fill="white"/>
<defs>
<clipPath id="clip0_0_1">
<rect width="14" height="15" fill="white" transform="translate(65 56.7789)"/>
</clipPath>
</defs>
</svg>
