<svg width="18" height="17" viewBox="0 0 18 17" fill="none" xmlns="http://www.w3.org/2000/svg">
<path d="M1.75 4C1.75 3.58579 1.41421 3.25 1 3.25C0.585788 3.25 0.250001 3.58579 0.250001 4H1.75ZM1 14.353L1.75 14.3539V14.353H1ZM1.4804 15.5168L2.01137 14.9871L2.01137 14.9871L1.4804 15.5168ZM2.643 16L2.64209 16.75H2.643V16ZM15.357 16L15.357 16.75L15.3579 16.75L15.357 16ZM16.5196 15.5168L15.9886 14.9871L15.9886 14.9871L16.5196 15.5168ZM17 14.353L16.25 14.353L16.25 14.3539L17 14.353ZM17 5.647L16.25 5.64609V5.647H17ZM16.5196 4.48322L15.9886 5.01291L15.9886 5.01291L16.5196 4.48322ZM15.357 4L15.3579 3.25H15.357V4ZM9.536 3.25C9.12179 3.25 8.786 3.58579 8.786 4C8.786 4.41421 9.12179 4.75 9.536 4.75V3.25ZM0.250001 4C0.250001 4.41421 0.585788 4.75 1 4.75C1.41421 4.75 1.75 4.41421 1.75 4H0.250001ZM1 2.647L1.75 2.647L1.75 2.64609L1 2.647ZM2.643 1L2.643 0.249999L2.64209 0.250001L2.643 1ZM7.893 1L7.89391 0.25H7.893V1ZM9.536 2.647L8.786 2.64609V2.647H9.536ZM8.786 4C8.786 4.41421 9.12179 4.75 9.536 4.75C9.95021 4.75 10.286 4.41421 10.286 4H8.786ZM1 3.25C0.585788 3.25 0.250001 3.58579 0.250001 4C0.250001 4.41421 0.585788 4.75 1 4.75V3.25ZM9.536 4.75C9.95022 4.75 10.286 4.41421 10.286 4C10.286 3.58579 9.95022 3.25 9.536 3.25V4.75ZM0.250001 4V14.353H1.75V4H0.250001ZM0.250002 14.3521C0.249229 14.9873 0.500818 15.5968 0.949421 16.0465L2.01137 14.9871C1.84373 14.819 1.74971 14.5913 1.75 14.3539L0.250002 14.3521ZM0.949421 16.0465C1.39803 16.4962 2.0069 16.7492 2.64209 16.75L2.64391 15.25C2.40654 15.2497 2.17901 15.1551 2.01137 14.9871L0.949421 16.0465ZM2.643 16.75H15.357V15.25H2.643V16.75ZM15.3579 16.75C15.9931 16.7492 16.602 16.4962 17.0506 16.0465L15.9886 14.9871C15.821 15.1551 15.5935 15.2497 15.3561 15.25L15.3579 16.75ZM17.0506 16.0465C17.4992 15.5968 17.7508 14.9873 17.75 14.3521L16.25 14.3539C16.2503 14.5913 16.1563 14.819 15.9886 14.9871L17.0506 16.0465ZM17.75 14.353V5.647H16.25V14.353H17.75ZM17.75 5.64791C17.7508 5.01272 17.4992 4.40323 17.0506 3.95354L15.9886 5.01291C16.1563 5.18096 16.2503 5.40872 16.25 5.64609L17.75 5.64791ZM17.0506 3.95354C16.602 3.50384 15.9931 3.25077 15.3579 3.25L15.3561 4.75C15.5935 4.75029 15.821 4.84486 15.9886 5.01291L17.0506 3.95354ZM15.357 3.25H9.536V4.75H15.357V3.25ZM1.75 4V2.647H0.250001V4H1.75ZM1.75 2.64609C1.74971 2.40872 1.84373 2.18096 2.01137 2.01291L0.949421 0.953538C0.500818 1.40323 0.249229 2.01272 0.250002 2.64791L1.75 2.64609ZM2.01137 2.01291C2.17901 1.84486 2.40654 1.75029 2.64391 1.75L2.64209 0.250001C2.0069 0.250772 1.39803 0.503843 0.949421 0.953538L2.01137 2.01291ZM2.643 1.75H7.893V0.25H2.643V1.75ZM7.89209 1.75C8.12946 1.75029 8.35699 1.84486 8.52463 2.01291L9.58658 0.953538C9.13798 0.503843 8.52911 0.250772 7.89391 0.250001L7.89209 1.75ZM8.52463 2.01291C8.69227 2.18096 8.78629 2.40872 8.786 2.64609L10.286 2.64791C10.2868 2.01272 10.0352 1.40323 9.58658 0.953538L8.52463 2.01291ZM8.786 2.647V4H10.286V2.647H8.786ZM1 4.75H9.536V3.25H1V4.75Z" fill="#1F5F00"/>
<path d="M7 9.25C6.58579 9.25 6.25 9.58579 6.25 10C6.25 10.4142 6.58579 10.75 7 10.75V9.25ZM9 10.75C9.41421 10.75 9.75 10.4142 9.75 10C9.75 9.58579 9.41421 9.25 9 9.25V10.75ZM9 9.25C8.58579 9.25 8.25 9.58579 8.25 10C8.25 10.4142 8.58579 10.75 9 10.75V9.25ZM11 10.75C11.4142 10.75 11.75 10.4142 11.75 10C11.75 9.58579 11.4142 9.25 11 9.25V10.75ZM9.75 10C9.75 9.58579 9.41421 9.25 9 9.25C8.58579 9.25 8.25 9.58579 8.25 10H9.75ZM8.25 12C8.25 12.4142 8.58579 12.75 9 12.75C9.41421 12.75 9.75 12.4142 9.75 12H8.25ZM8.25 10C8.25 10.4142 8.58579 10.75 9 10.75C9.41421 10.75 9.75 10.4142 9.75 10H8.25ZM9.75 8C9.75 7.58579 9.41421 7.25 9 7.25C8.58579 7.25 8.25 7.58579 8.25 8H9.75ZM7 10.75H9V9.25H7V10.75ZM9 10.75H11V9.25H9V10.75ZM8.25 10V12H9.75V10H8.25ZM9.75 10V8H8.25V10H9.75Z" fill="#1F5F00"/>
</svg>
