<?xml version="1.0" encoding="utf-8"?>
<!-- Generator: Adobe Illustrator 25.4.1, SVG Export Plug-In . SVG Version: 6.00 Build 0)  -->
<svg version="1.1" id="레이어_1" xmlns="http://www.w3.org/2000/svg" xmlns:xlink="http://www.w3.org/1999/xlink" x="0px"
	 y="0px" viewBox="0 0 968 1372" style="enable-background:new 0 0 968 1372;" xml:space="preserve">
<style type="text/css">
	.st0{fill:#3D9C46;}
	.st1{fill:#5DBA58;}
	.st2{fill:#43170C;}
	.st3{fill:#793116;}
	.st4{fill:#9B462B;}
	.st5{fill:#CBD9DE;}
	.st6{fill:#E5AA37;}
	.st7{fill:#F0C060;}
	.st8{fill:#F6CE6E;}
	.st9{fill:#95CCDB;}
	.st10{fill:#FFFFFF;}
	.st11{fill:#8A62A9;}
</style>
<ellipse class="st2" cx="341.15" cy="1076.54" rx="73.63" ry="37.17"/>
<ellipse class="st3" cx="499.51" cy="1016.34" rx="84.73" ry="45.43"/>
<ellipse class="st3" cx="436.51" cy="1073.72" rx="62.99" ry="39.23"/>
<ellipse class="st3" cx="682.71" cy="1096.35" rx="50.07" ry="39.23"/>
<circle class="st3" cx="696.73" cy="1013.28" r="19.42"/>
<circle class="st3" cx="277.31" cy="1061.78" r="19.42"/>
<circle class="st3" cx="729.38" cy="1015.33" r="6.43"/>
<circle class="st3" cx="703.16" cy="963.47" r="6.43"/>
<circle class="st3" cx="319.82" cy="1021.76" r="6.43"/>
<ellipse class="st3" cx="567.34" cy="1086.05" rx="100.38" ry="63.51"/>
<ellipse class="st3" cx="490.99" cy="1169.07" rx="134.3" ry="83.02"/>
<ellipse class="st3" cx="332.67" cy="1144.8" rx="134.3" ry="83.02"/>
<path class="st0" d="M506.88,601.86c-39.32-67.5-18.09-173.4-18.09-173.4l13.9-22.68c0,0-5.55,16.4-12.28,52.79
	c-10.45,56.53,8.24,128.08,30.55,160.77C510.74,607.17,506.88,601.86,506.88,601.86z"/>
<path class="st1" d="M488.79,428.46c-19.39-24.26-37.56-91.51,0.98-124.62c25.67-22.04,63.05-22.31,91.65-1.93
	C545.75,344.17,488.79,428.46,488.79,428.46z"/>
<path class="st0" d="M488.35,430.83c16.93-38.94,53.76-128.63,115.89-150.79c39.82-14.2,86.5-15.29,123.45,38.43
	c-86.54-15.62-128.45,6.57-160.41,34.74C538.7,378.41,542.96,376.72,488.35,430.83z"/>
<path class="st1" d="M414.71,452.54c-37.57-76.14-80.93-114.29-158.86-107.36c-77.93,6.93-161.66-17.22-197.93,30.13
	c41.22-4.71,144.72,58.21,193.39,90.77S393.13,464.7,414.71,452.54z"/>
<path class="st1" d="M338.6,375.61c65.83,54.2,126.6,115.84,178.64,239.42s53.4,144.42,53.4,144.42l-7.33,2.11
	c0,0-30.2-129.1-111.23-246.52C372.74,400.06,338.6,375.61,338.6,375.61z"/>
<path class="st0" d="M460.08,525.75c-10.44-48.23-35.98-109.89-72.34-166.14c-35.46-54.86-54.81-78.86-54.81-78.86l9.86-12.96
	c0,0,56.69,82.44,85.73,148.21s38.58,107.74,38.58,107.74L460.08,525.75z"/>
<path class="st0" d="M355.08,291.82C309.67,269.27,238.59,235.11,218.2,184S174.89,76.34,174.89,76.34
	c77.81,30.9,142.8,60.71,163.49,114.49C359.07,244.61,355.08,291.82,355.08,291.82z"/>
<path class="st0" d="M467.1,1062.58c34.92-64.13,77.51-168.63,86.16-268.63c8.43-97.54,7.02-144.23,7.02-144.23l26.19-4.02
	c0,0-12.21,145.32-40.18,248.21c-27.98,102.88-41.74,143.89-41.74,143.89L467.1,1062.58z"/>
<path class="st0" d="M557.68,734.57c-11.5-77.7-30.93-198.31,16.03-269.46c46.96-71.15,98.61-150.32,98.61-150.32
	c29.53,126.3,49.11,235.32-0.98,309.21S557.68,734.57,557.68,734.57z"/>
<path class="st0" d="M554.06,850c66.57-89.8,91-130.87,183.43-93.72c92.42,37.16,121.36,57.35,153.16,46.82
	C814.64,907.49,554.06,850,554.06,850z"/>
<ellipse class="st2" cx="411.61" cy="1195.98" rx="134.3" ry="83.02"/>
<ellipse class="st2" cx="545.9" cy="1195.98" rx="99.8" ry="59.1"/>
<ellipse class="st2" cx="600.28" cy="1128.26" rx="67.44" ry="51.72"/>
<circle class="st3" cx="346.28" cy="1042.8" r="19.42"/>
<ellipse class="st4" cx="567.34" cy="1021.76" rx="58.35" ry="29.54"/>
<ellipse class="st4" cx="497.57" cy="1051.86" rx="48.34" ry="30.1"/>
</svg>
