<svg width="19" height="19" viewBox="0 0 19 19" fill="none" xmlns="http://www.w3.org/2000/svg">
<g opacity="0.54">
<path fill-rule="evenodd" clip-rule="evenodd" d="M3.95837 9.50007C3.95856 6.85629 5.82627 4.58081 8.41928 4.06521C11.0123 3.54961 13.6084 4.93749 14.62 7.38008C15.6316 9.82267 14.7769 12.6397 12.5786 14.1084C10.3803 15.577 7.45063 15.2883 5.58129 13.4188C4.54205 12.3795 3.95827 10.9698 3.95837 9.50007Z" stroke="#1F5F00" stroke-width="1.5" stroke-linecap="round" stroke-linejoin="round"/>
<path d="M6.89165 11.047C6.5987 11.3398 6.59861 11.8147 6.89144 12.1076C7.18428 12.4006 7.65916 12.4007 7.9521 12.1078L6.89165 11.047ZM10.0302 10.0305C10.3232 9.73765 10.3233 9.26278 10.0304 8.96983C9.73759 8.67688 9.26272 8.67679 8.96977 8.96963L10.0302 10.0305ZM8.96947 8.96993C8.67669 9.26294 8.67687 9.73781 8.96987 10.0306C9.26288 10.3234 9.73775 10.3232 10.0305 10.0302L8.96947 8.96993ZM12.1079 7.95127C12.4006 7.65827 12.4005 7.18339 12.1075 6.89061C11.8145 6.59783 11.3396 6.59801 11.0468 6.89101L12.1079 7.95127ZM10.0302 8.96963C9.73728 8.67679 9.26241 8.67688 8.96957 8.96983C8.67673 9.26278 8.67682 9.73765 8.96977 10.0305L10.0302 8.96963ZM11.0479 12.1078C11.3408 12.4007 11.8157 12.4006 12.1086 12.1076C12.4014 11.8147 12.4013 11.3398 12.1084 11.047L11.0479 12.1078ZM8.96957 10.0303C9.26241 10.3232 9.73728 10.3233 10.0302 10.0305C10.3232 9.73765 10.3233 9.26278 10.0304 8.96983L8.96957 10.0303ZM7.95231 6.89091C7.65947 6.59796 7.18459 6.59787 6.89165 6.89071C6.5987 7.18355 6.59861 7.65842 6.89144 7.95137L7.95231 6.89091ZM7.9521 12.1078L10.0302 10.0305L8.96977 8.96963L6.89165 11.047L7.9521 12.1078ZM10.0305 10.0302L12.1079 7.95127L11.0468 6.89101L8.96947 8.96993L10.0305 10.0302ZM8.96977 10.0305L11.0479 12.1078L12.1084 11.047L10.0302 8.96963L8.96977 10.0305ZM10.0304 8.96983L7.95231 6.89091L6.89144 7.95137L8.96957 10.0303L10.0304 8.96983Z" fill="#1F5F00"/>
</g>
</svg>
