<svg width="30" height="33" viewBox="0 0 30 33" fill="none" xmlns="http://www.w3.org/2000/svg">
<path fill-rule="evenodd" clip-rule="evenodd" d="M6.25 17.8121C6.26549 19.3048 6.81944 20.7295 7.78996 21.7728C8.76048 22.8162 10.0681 23.3926 11.425 23.3754H13.9325C14.6143 23.376 15.2664 23.683 15.7375 24.2251L17.0738 25.7624C17.2851 25.9979 17.5735 26.1305 17.8744 26.1305C18.1753 26.1305 18.4636 25.9979 18.675 25.7624L20.75 23.3754L21.4313 22.5394C21.5567 22.3895 21.6935 22.2515 21.84 22.1269C23.0436 21.0861 23.7474 19.4962 23.75 17.8121V11.0609C23.7164 7.95369 21.3997 5.46448 18.575 5.50038H11.425C8.60026 5.46448 6.28363 7.95369 6.25 11.0609V17.8121Z" stroke="black" stroke-width="1.5" stroke-linecap="round" stroke-linejoin="round"/>
<path d="M19.4543 16.8187C19.5967 16.4298 19.3968 15.999 19.0079 15.8566C18.6189 15.7142 18.1881 15.914 18.0457 16.303L19.4543 16.8187ZM17.645 18.2191L18.1456 18.7776L18.1483 18.7751L17.645 18.2191ZM12.33 18.1765L11.818 18.7245L11.8212 18.7275L12.33 18.1765ZM11.9581 16.2532C11.8216 15.8622 11.394 15.6558 11.0029 15.7922C10.6118 15.9287 10.4054 16.3564 10.5419 16.7475L11.9581 16.2532ZM12 11.0004C12 10.5862 11.6642 10.2504 11.25 10.2504C10.8358 10.2504 10.5 10.5862 10.5 11.0004H12ZM10.5 12.3754C10.5 12.7896 10.8358 13.1254 11.25 13.1254C11.6642 13.1254 12 12.7896 12 12.3754H10.5ZM19.5 11.0004C19.5 10.5862 19.1642 10.2504 18.75 10.2504C18.3358 10.2504 18 10.5862 18 11.0004H19.5ZM18 12.3754C18 12.7896 18.3358 13.1254 18.75 13.1254C19.1642 13.1254 19.5 12.7896 19.5 12.3754H18ZM18.0457 16.303C17.8492 16.8396 17.5362 17.3059 17.1417 17.6631L18.1483 18.7751C18.7311 18.2476 19.1779 17.5735 19.4543 16.8187L18.0457 16.303ZM17.1444 17.6606C15.8817 18.7924 14.0881 18.7789 12.8388 17.6255L11.8212 18.7275C13.6376 20.4046 16.3055 20.4269 18.1456 18.7776L17.1444 17.6606ZM12.842 17.6285C12.4527 17.2647 12.1465 16.793 11.9581 16.2532L10.5419 16.7475C10.8068 17.5065 11.2434 18.1876 11.818 18.7245L12.842 17.6285ZM10.5 11.0004V12.3754H12V11.0004H10.5ZM18 11.0004V12.3754H19.5V11.0004H18Z" fill="black"/>
</svg>
